# This file uses centimeters as units for non-parametric coordinates.

mtllib floorTile1.mtl
g default
v -75.000000 0.000000 75.000000
v 75.000000 0.000000 75.000000
v -75.000000 0.000000 -75.000000
v 75.000000 0.000000 -75.000000
v 0.000000 0.000000 0.000000
v 0.000000 0.000000 75.000000
v 75.000000 0.000000 0.000000
v 0.000000 0.000000 -75.000000
v -75.000000 0.000000 0.000000
v -70.954681 -1.117814 70.954681
v -70.954681 -1.117814 4.045312
v -4.045312 -1.117814 70.954681
v -4.045312 -1.117814 4.045312
v 4.045312 -1.117814 70.954681
v 70.954681 -1.117814 70.954681
v 70.954681 -1.117814 4.045312
v 4.045312 -1.117814 4.045312
v 70.954681 -1.117814 -4.045312
v 70.954681 -1.117814 -70.954681
v 4.045312 -1.117814 -70.954681
v 4.045312 -1.117814 -4.045312
v -70.954681 -1.117814 -70.954681
v -4.045312 -1.117814 -70.954681
v -70.954681 -1.117814 -4.045312
v -4.045312 -1.117814 -4.045312
vt 0.375000 0.250000
vt 0.625000 0.250000
vt 0.375000 0.500000
vt 0.625000 0.500000
vt 0.500000 0.375000
vt 0.500000 0.250000
vt 0.625000 0.375000
vt 0.500000 0.500000
vt 0.375000 0.375000
vt 0.375000 0.375000
vt 0.375000 0.250000
vt 0.500000 0.250000
vt 0.500000 0.375000
vt 0.500000 0.250000
vt 0.625000 0.250000
vt 0.625000 0.375000
vt 0.500000 0.375000
vt 0.625000 0.375000
vt 0.625000 0.500000
vt 0.500000 0.500000
vt 0.500000 0.375000
vt 0.500000 0.500000
vt 0.375000 0.500000
vt 0.375000 0.375000
vt 0.500000 0.375000
vn 0.000000 1.000000 0.000000
vn 0.000000 1.000000 0.000000
vn 0.000000 1.000000 0.000000
vn 0.000000 1.000000 0.000000
vn 0.000000 1.000000 0.000000
vn 0.000000 1.000000 0.000000
vn 0.000000 1.000000 0.000000
vn 0.000000 1.000000 0.000000
vn 0.000000 1.000000 0.000000
vn 0.000000 1.000000 0.000000
vn 0.000000 1.000000 0.000000
vn 0.000000 1.000000 0.000000
vn 0.000000 1.000000 0.000000
vn 0.000000 1.000000 0.000000
vn 0.000000 1.000000 0.000000
vn 0.000000 1.000000 0.000000
vn 0.266342 0.963879 0.000000
vn 0.266342 0.963879 0.000000
vn 0.266342 0.963879 0.000000
vn 0.266342 0.963879 0.000000
vn 0.000000 0.963879 -0.266342
vn 0.000000 0.963879 -0.266342
vn 0.000000 0.963879 -0.266342
vn 0.000000 0.963879 -0.266342
vn -0.266342 0.963879 0.000000
vn -0.266342 0.963879 0.000000
vn -0.266342 0.963879 0.000000
vn -0.266342 0.963879 0.000000
vn 0.000000 0.963879 0.266342
vn 0.000000 0.963879 0.266342
vn 0.000000 0.963879 0.266342
vn 0.000000 0.963879 0.266342
vn 0.000000 0.963879 -0.266342
vn 0.000000 0.963879 -0.266342
vn 0.000000 0.963879 -0.266342
vn 0.000000 0.963879 -0.266342
vn -0.266342 0.963879 0.000000
vn -0.266342 0.963879 0.000000
vn -0.266342 0.963879 0.000000
vn -0.266342 0.963879 0.000000
vn 0.000000 0.963879 0.266342
vn 0.000000 0.963879 0.266342
vn 0.000000 0.963879 0.266342
vn 0.000000 0.963879 0.266342
vn 0.266342 0.963879 0.000000
vn 0.266342 0.963879 0.000000
vn 0.266342 0.963879 0.000000
vn 0.266342 0.963879 0.000000
vn -0.266342 0.963879 0.000000
vn -0.266342 0.963879 0.000000
vn -0.266342 0.963879 0.000000
vn -0.266342 0.963879 0.000000
vn 0.000000 0.963879 0.266342
vn 0.000000 0.963879 0.266342
vn 0.000000 0.963879 0.266342
vn 0.000000 0.963879 0.266342
vn 0.266342 0.963879 0.000000
vn 0.266342 0.963879 0.000000
vn 0.266342 0.963879 0.000000
vn 0.266342 0.963879 0.000000
vn 0.000000 0.963879 -0.266342
vn 0.000000 0.963879 -0.266342
vn 0.000000 0.963879 -0.266342
vn 0.000000 0.963879 -0.266342
vn 0.000000 0.963879 0.266342
vn 0.000000 0.963879 0.266342
vn 0.000000 0.963879 0.266342
vn 0.000000 0.963879 0.266342
vn 0.266342 0.963879 0.000000
vn 0.266342 0.963879 0.000000
vn 0.266342 0.963879 0.000000
vn 0.266342 0.963879 0.000000
vn 0.000000 0.963879 -0.266342
vn 0.000000 0.963879 -0.266342
vn 0.000000 0.963879 -0.266342
vn 0.000000 0.963879 -0.266342
vn -0.266342 0.963879 0.000000
vn -0.266342 0.963879 0.000000
vn -0.266342 0.963879 0.000000
vn -0.266342 0.963879 0.000000
s off
g floorsegment1
usemtl initialShadingGroup
f 11/24/1 10/1/2 12/6/3 13/25/4
f 14/6/5 15/2/6 16/7/7 17/25/8
f 18/7/9 19/4/10 20/22/11 21/25/12
f 23/22/13 22/23/14 24/24/15 25/25/16
f 9/9/17 1/1/18 10/11/19 11/10/20
f 1/1/21 6/6/22 12/12/23 10/11/24
f 6/6/25 5/5/26 13/13/27 12/12/28
f 5/5/29 9/9/30 11/10/31 13/13/32
f 6/6/33 2/2/34 15/15/35 14/14/36
f 2/2/37 7/7/38 16/16/39 15/15/40
f 7/7/41 5/5/42 17/17/43 16/16/44
f 5/5/45 6/6/46 14/14/47 17/17/48
f 7/7/49 4/4/50 19/19/51 18/18/52
f 4/4/53 8/8/54 20/20/55 19/19/56
f 8/8/57 5/5/58 21/21/59 20/20/60
f 5/5/61 7/7/62 18/18/63 21/21/64
f 8/8/65 3/3/66 22/23/67 23/22/68
f 3/3/69 9/9/70 24/24/71 22/23/72
f 9/9/73 5/5/74 25/25/75 24/24/76
f 5/5/77 8/8/78 23/22/79 25/25/80
