# This file uses centimeters as units for non-parametric coordinates.

mtllib scene2_pipes.mtl
g default
v 245.961548 67.325935 -349.724976
v 255.533600 75.141548 -340.152802
v 259.498474 75.141548 -349.724976
v 245.961548 75.141548 -336.187927
v 245.961548 67.325981 -322.650940
v 214.699249 43.879265 -336.187927
v 214.699249 51.694817 -349.724976
v 245.961548 51.694817 -349.724976
v 245.961548 43.879265 -336.187927
v 273.035461 67.325981 -349.724976
v 273.035461 67.325981 -360.000000
v 259.498474 75.141548 -360.000000
v 265.105682 67.325981 -330.580811
v 210.350143 43.879265 -336.187927
v 210.350143 -5.729164 -336.187927
v 202.898087 -5.729164 -349.095276
v 202.898087 51.331261 -349.095276
v 214.699249 67.325981 -322.650940
v 214.699249 51.694817 -322.650940
v 245.961548 51.694817 -322.650940
v 255.533600 43.879265 -340.152802
v 259.498474 43.879265 -349.724976
v 187.994049 51.331291 -323.280609
v 187.994049 -5.729164 -323.280609
v 202.898132 -5.729164 -323.280609
v 202.898132 51.331291 -323.280609
v 245.961548 51.694817 -360.000000
v 259.498474 43.879265 -360.000000
v 273.035461 51.694817 -349.724976
v 265.105682 51.694817 -330.580811
v 273.035461 51.694817 -360.000000
v 180.542023 43.879265 -336.187927
v 180.542023 -5.729164 -336.187927
v 245.961548 67.325935 -360.000000
v 214.699249 75.141548 -336.187927
v 187.994049 -5.729164 -349.095276
v 187.994049 51.331261 -349.095276
v 214.699249 67.325935 -349.724976
v 151.331573 67.325981 -322.650940
v 151.331573 51.694817 -322.650940
v 151.331573 75.141548 -336.187927
v 151.331573 51.694817 -349.724976
v 151.331573 67.325935 -349.724976
v 151.331573 43.879265 -336.187927
v 132.187347 67.325981 -330.580750
v 124.257538 67.325981 -349.724976
v 132.187347 51.694817 -330.580750
v 124.257538 51.694817 -349.724976
v 141.759430 75.141548 -340.152832
v 137.794525 75.141548 -349.724976
v 141.759430 43.879265 -340.152832
v 137.794525 43.879265 -349.724976
v 124.257538 67.325981 -360.000000
v 124.257538 51.694817 -360.000000
v 137.794525 75.141548 -360.000000
v 151.331573 67.325935 -360.000000
v 151.331573 51.694817 -360.000000
v 137.794525 43.879265 -360.000000
v 292.894958 117.313423 -349.724976
v 285.079346 126.885475 -340.152802
v 285.079346 130.850342 -349.724976
v 285.079346 117.313423 -336.187927
v 292.894897 117.313423 -322.650940
v 316.341614 86.051125 -336.187927
v 308.526062 86.051125 -349.724976
v 308.526062 117.313423 -349.724976
v 316.341614 117.313423 -336.187927
v 292.894897 144.387329 -349.724976
v 292.894897 144.387329 -360.000000
v 285.079346 130.850342 -360.000000
v 292.894897 136.457550 -330.580811
v 316.341614 81.702019 -336.187927
v 365.950043 81.702019 -336.187927
v 365.950043 74.249962 -349.095276
v 308.889618 74.249962 -349.095276
v 292.894897 86.051125 -322.650940
v 308.526062 86.051125 -322.650940
v 308.526062 117.313423 -322.650940
v 316.341614 126.885475 -340.152802
v 316.341614 130.850342 -349.724976
v 308.889587 59.345924 -323.280609
v 365.950043 59.345924 -323.280609
v 365.950043 74.250008 -323.280609
v 308.889587 74.250008 -323.280609
v 308.526062 117.313423 -360.000000
v 316.341614 130.850342 -360.000000
v 308.526062 144.387329 -349.724976
v 308.526062 136.457550 -330.580811
v 308.526062 144.387329 -360.000000
v 316.341614 51.893898 -336.187927
v 365.950043 51.893898 -336.187927
v 292.894958 117.313423 -360.000000
v 285.079346 86.051125 -336.187927
v 365.950043 59.345924 -349.095276
v 308.889618 59.345924 -349.095276
v 292.894958 86.051125 -349.724976
v 292.894897 22.683449 -322.650940
v 308.526062 22.683449 -322.650940
v 285.079346 22.683449 -336.187927
v 308.526062 22.683449 -349.724976
v 292.894958 22.683449 -349.724976
v 316.341614 22.683449 -336.187927
v 292.894897 3.539223 -330.580750
v 292.894897 -4.390587 -349.724976
v 308.526062 3.539223 -330.580750
v 308.526062 -4.390587 -349.724976
v 285.079346 13.111305 -340.152832
v 285.079346 9.146400 -349.724976
v 316.341614 13.111305 -340.152832
v 316.341614 9.146400 -349.724976
v 292.894897 -4.390587 -360.000000
v 308.526062 -4.390587 -360.000000
v 285.079346 9.146400 -360.000000
v 292.894958 22.683449 -360.000000
v 308.526062 22.683449 -360.000000
v 316.341614 9.146400 -360.000000
vt 0.421875 0.979067
vt 0.343750 0.843750
vt 0.343750 0.843750
vt 0.343750 0.843750
vt 0.421875 0.708433
vt 0.583333 0.312500
vt 0.625000 0.312500
vt 0.625000 0.688440
vt 0.583333 0.688440
vt 0.421875 0.708434
vt 0.421875 0.708434
vt 0.343750 0.843750
vt 0.421875 0.708434
vt 0.343750 0.156250
vt 0.343750 0.156250
vt 0.421875 0.020934
vt 0.421875 0.020934
vt 0.500000 0.312500
vt 0.541667 0.312500
vt 0.541667 0.688440
vt 0.500000 0.688440
vt 0.656250 0.843750
vt 0.578125 0.979067
vt 0.656250 0.843750
vt 0.656250 0.843750
vt 0.578125 0.291566
vt 0.578125 0.291566
vt 0.421875 0.291566
vt 0.421875 0.291566
vt 0.578125 0.979067
vt 0.656250 0.843750
vt 0.578125 0.708434
vt 0.578125 0.708434
vt 0.578125 0.708434
vt 0.578125 0.708434
vt 0.656250 0.156250
vt 0.656250 0.156250
vt 0.421875 0.979067
vt 0.458333 0.312500
vt 0.458333 0.688440
vt 0.578125 0.020934
vt 0.578125 0.020934
vt 0.375000 0.312500
vt 0.416667 0.312500
vt 0.416667 0.688440
vt 0.375000 0.688440
vt 0.578125 0.291566
vt 0.421875 0.291566
vt 0.421875 0.291566
vt 0.578125 0.291566
vt 0.343750 0.156250
vt 0.343750 0.156250
vt 0.421875 0.020934
vt 0.578125 0.020934
vt 0.578125 0.020934
vt 0.421875 0.020934
vt 0.656250 0.156250
vt 0.656250 0.156250
vt 0.581759 0.285272
vt 0.581759 0.285272
vt 0.656250 0.156250
vt 0.581759 0.027228
vt 0.581759 0.027228
vt 0.578125 0.291566
vt 0.578125 0.291566
vt 0.421875 0.291566
vt 0.421875 0.291566
vt 0.343750 0.156250
vt 0.343750 0.156250
vt 0.656250 0.156250
vt 0.656250 0.156250
vt 0.578125 0.291566
vt 0.421875 0.291566
vt 0.343750 0.156250
vt 0.421875 0.020934
vt 0.578125 0.020934
vt 0.656250 0.156250
vt 0.421875 0.979067
vt 0.343750 0.843750
vt 0.343750 0.843750
vt 0.343750 0.843750
vt 0.421875 0.708434
vt 0.421875 0.708433
vt 0.583333 0.312500
vt 0.625000 0.312500
vt 0.583333 0.688440
vt 0.625000 0.688440
vt 0.421875 0.708434
vt 0.343750 0.843750
vt 0.421875 0.708434
vt 0.343750 0.156250
vt 0.421875 0.020934
vt 0.343750 0.156250
vt 0.421875 0.020934
vt 0.500000 0.312500
vt 0.541667 0.312500
vt 0.500000 0.688440
vt 0.541667 0.688440
vt 0.656250 0.843750
vt 0.578125 0.979067
vt 0.656250 0.843750
vt 0.656250 0.843750
vt 0.578125 0.291566
vt 0.578125 0.291566
vt 0.421875 0.291566
vt 0.421875 0.291566
vt 0.656250 0.843750
vt 0.578125 0.979067
vt 0.578125 0.708434
vt 0.578125 0.708434
vt 0.578125 0.708434
vt 0.578125 0.708434
vt 0.656250 0.156250
vt 0.656250 0.156250
vt 0.421875 0.979067
vt 0.458333 0.312500
vt 0.458333 0.688440
vt 0.578125 0.020934
vt 0.578125 0.020934
vt 0.375000 0.312500
vt 0.416667 0.312500
vt 0.375000 0.688440
vt 0.416667 0.688440
vt 0.578125 0.291566
vt 0.421875 0.291566
vt 0.578125 0.291566
vt 0.421875 0.291566
vt 0.343750 0.156250
vt 0.343750 0.156250
vt 0.421875 0.020934
vt 0.578125 0.020934
vt 0.421875 0.020934
vt 0.578125 0.020934
vt 0.656250 0.156250
vt 0.656250 0.156250
vt 0.581759 0.285272
vt 0.581759 0.285272
vt 0.656250 0.156250
vt 0.581759 0.027228
vt 0.581759 0.027228
vt 0.421875 0.291566
vt 0.578125 0.291566
vt 0.421875 0.291566
vt 0.578125 0.291566
vt 0.343750 0.156250
vt 0.343750 0.156250
vt 0.656250 0.156250
vt 0.656250 0.156250
vt 0.421875 0.291566
vt 0.578125 0.291566
vt 0.343750 0.156250
vt 0.421875 0.020934
vt 0.578125 0.020934
vt 0.656250 0.156250
vn -0.169063 0.905385 -0.389482
vn -0.353554 0.866026 -0.353553
vn -0.498100 0.862730 -0.087146
vn -0.040099 0.865329 -0.499597
vn 0.387001 0.865032 0.319296
vn 0.077117 0.863447 0.498510
vn 0.369029 0.865815 0.337908
vn 0.067083 0.864075 0.498873
vn 0.000000 -0.866027 -0.499997
vn 0.000000 -0.866027 -0.499997
vn -0.040099 -0.865331 -0.499594
vn -0.169062 -0.905386 -0.389479
vn 0.497004 0.860837 0.109301
vn 0.496883 0.860628 0.111470
vn 0.499999 0.866026 0.000000
vn 0.499997 0.866027 0.000000
vn 0.866025 0.000000 -0.500000
vn 0.866025 0.000000 -0.500000
vn 0.866026 0.000000 -0.500000
vn 0.866026 0.000000 -0.500000
vn 0.000000 0.000000 1.000000
vn 0.000000 0.000000 1.000000
vn 0.155407 0.000000 0.987850
vn 0.155407 0.000000 0.987851
vn -0.353553 -0.866027 -0.353550
vn -0.498096 -0.862732 -0.087145
vn 0.000000 0.000000 1.000000
vn 0.000000 0.000000 1.000000
vn 0.000000 0.000000 1.000000
vn 0.000000 0.000000 1.000000
vn -0.500000 -0.866026 0.000000
vn -0.500001 -0.866025 0.000000
vn 0.000001 -0.866026 0.499999
vn 0.000000 -0.866026 0.499998
vn 0.057833 -0.864577 0.499162
vn 0.056069 -0.864664 0.499212
vn 0.319298 -0.865032 0.387000
vn 0.495603 -0.858410 0.132323
vn 0.337911 -0.865815 0.369026
vn 0.496259 -0.859548 0.122082
vn 0.866026 0.000000 0.499999
vn 0.866027 0.000000 0.499997
vn 0.866026 0.000000 0.499999
vn 0.866027 0.000000 0.499997
vn 0.965540 0.000000 0.260256
vn 0.965540 0.000000 0.260256
vn 1.000000 0.000000 0.000000
vn 1.000000 0.000000 0.000000
vn 0.499998 -0.866027 0.000000
vn 0.500000 -0.866026 0.000000
vn 0.923879 0.000000 0.382684
vn 0.923879 0.000000 0.382684
vn 0.382688 0.000000 0.923878
vn 0.382688 0.000000 0.923878
vn -0.866027 0.000000 0.499998
vn -0.866027 0.000000 0.499998
vn -0.866026 0.000000 0.500000
vn -0.866025 0.000000 0.500000
vn -1.000000 0.000000 0.000000
vn -1.000000 0.000000 0.000000
vn -1.000000 0.000000 0.000000
vn -1.000000 0.000000 0.000000
vn 0.000000 0.866026 0.499999
vn 0.000000 0.866026 0.499999
vn -0.500003 0.866024 0.000000
vn -0.500003 0.866023 0.000000
vn 0.000000 0.000000 -1.000000
vn 0.000000 0.000000 -1.000000
vn 0.000000 0.000000 -1.000000
vn 0.000000 0.000000 -1.000000
vn 0.000000 0.000000 -1.000000
vn 0.000000 0.000000 -1.000000
vn 0.000000 0.000000 -1.000000
vn 0.000000 0.000000 -1.000000
vn -0.866027 0.000000 -0.499998
vn -0.866026 0.000000 -0.499999
vn -0.866027 0.000000 -0.499998
vn -0.866026 0.000000 -0.499999
vn 0.000000 0.866025 -0.500000
vn 0.000000 0.866025 -0.500000
vn -0.154148 0.000000 0.988048
vn -0.154148 0.000000 0.988048
vn -0.054261 0.864750 0.499263
vn -0.073345 0.863693 0.498653
vn 0.000000 0.000000 -1.000000
vn 0.000000 0.000000 -1.000000
vn 0.021949 0.865817 -0.499879
vn 0.149885 0.907139 -0.393235
vn 0.000002 -0.866026 0.499998
vn 0.000002 -0.866029 0.499994
vn -0.087349 -0.862716 0.498087
vn -0.000001 -0.866027 0.499997
vn -0.000001 -0.866026 0.499999
vn -0.112021 -0.860575 0.496852
vn 0.000000 -0.866027 -0.499997
vn 0.000000 -0.866029 -0.499994
vn 0.234530 -0.916246 -0.324791
vn -0.000000 -0.866027 -0.499997
vn -0.000000 -0.866027 -0.499997
vn 0.042336 -0.865251 -0.499549
vn -0.382684 0.000000 0.923879
vn -0.382684 0.000000 0.923879
vn -0.923879 0.000000 0.382684
vn -0.923879 0.000000 0.382684
vn -0.965540 0.000000 0.260256
vn -0.965540 0.000000 0.260256
vn -0.353553 0.866026 0.353553
vn -0.353553 0.866026 0.353553
vn -0.495806 0.858762 0.129247
vn -0.497090 0.860988 0.107707
vn 0.353553 0.866026 -0.353553
vn 0.499233 0.864697 -0.055365
vn 0.353552 -0.866027 -0.353551
vn 0.499230 -0.864699 -0.055365
vn -0.353553 -0.866026 0.353552
vn -0.353553 -0.866026 0.353553
vn -0.497090 -0.860988 0.107707
vn -0.495805 -0.858762 0.129247
vn -1.000000 0.000000 0.000000
vn -1.000000 0.000000 0.000000
vn -0.499998 0.866026 0.000000
vn -0.499998 0.866026 0.000000
vn 0.500000 0.866025 0.000000
vn 0.500000 0.866025 0.000000
vn 1.000000 0.000000 0.000000
vn 1.000000 0.000000 0.000000
vn 1.000000 0.000000 0.000000
vn 1.000000 0.000000 0.000000
vn 0.499997 -0.866027 0.000000
vn 0.499997 -0.866027 0.000000
vn -0.499998 -0.866026 0.000000
vn -0.499998 -0.866026 0.000000
vn -0.905385 -0.169063 -0.389482
vn -0.866025 -0.353555 -0.353553
vn -0.862728 -0.498103 -0.087146
vn -0.865329 -0.040098 -0.499597
vn -0.865032 0.387001 0.319295
vn -0.863447 0.077117 0.498509
vn -0.865815 0.369028 0.337908
vn -0.864076 0.067083 0.498871
vn 0.866027 0.000000 -0.499997
vn 0.866027 -0.000001 -0.499997
vn 0.865331 -0.040098 -0.499594
vn 0.905386 -0.169062 -0.389480
vn -0.860837 0.497003 0.109302
vn -0.860629 0.496883 0.111470
vn -0.866027 0.499998 0.000000
vn -0.866026 0.500000 0.000000
vn 0.000000 0.866026 -0.500000
vn 0.000000 0.866026 -0.500000
vn 0.000000 0.866026 -0.500000
vn 0.000000 0.866026 -0.500000
vn 0.000000 0.000000 1.000000
vn 0.000000 0.000000 1.000000
vn 0.000000 0.155407 0.987851
vn 0.000000 0.155407 0.987851
vn 0.866028 -0.353550 -0.353551
vn 0.862731 -0.498098 -0.087145
vn 0.000000 0.000000 1.000000
vn 0.000000 0.000000 1.000000
vn 0.000000 0.000000 1.000000
vn 0.000000 0.000000 1.000000
vn 0.866025 -0.500001 0.000000
vn 0.866024 -0.500002 0.000000
vn 0.866027 -0.000001 0.499997
vn 0.866027 0.000000 0.499998
vn 0.864577 0.057833 0.499162
vn 0.864664 0.056070 0.499212
vn 0.865032 0.319297 0.387000
vn 0.858411 0.495603 0.132323
vn 0.865815 0.337911 0.369026
vn 0.859547 0.496260 0.122082
vn 0.000000 0.866026 0.499999
vn 0.000000 0.866027 0.499998
vn 0.000000 0.866026 0.499999
vn 0.000000 0.866027 0.499998
vn 0.000000 0.965540 0.260256
vn 0.000000 0.965540 0.260256
vn 0.000000 1.000000 0.000000
vn 0.000000 1.000000 0.000000
vn 0.866026 0.499999 0.000000
vn 0.866027 0.499997 0.000000
vn 0.000000 0.923880 0.382683
vn 0.000000 0.923880 0.382684
vn 0.000000 0.382688 0.923878
vn 0.000000 0.382688 0.923878
vn 0.000000 -0.866026 0.499999
vn 0.000000 -0.866026 0.499999
vn 0.000000 -0.866026 0.500000
vn 0.000000 -0.866026 0.500000
vn 0.000000 -1.000000 0.000000
vn 0.000000 -1.000000 0.000000
vn 0.000000 -1.000000 0.000000
vn 0.000000 -1.000000 0.000000
vn -0.866026 0.000000 0.499999
vn -0.866026 0.000000 0.499999
vn -0.866023 -0.500005 0.000000
vn -0.866023 -0.500005 0.000000
vn 0.000000 0.000000 -1.000000
vn 0.000000 0.000000 -1.000000
vn 0.000000 0.000000 -1.000000
vn 0.000000 0.000000 -1.000000
vn 0.000000 0.000000 -1.000000
vn 0.000000 0.000000 -1.000000
vn 0.000000 0.000000 -1.000000
vn 0.000000 0.000000 -1.000000
vn 0.000000 -0.866026 -0.499998
vn 0.000000 -0.866027 -0.499998
vn 0.000000 -0.866026 -0.499998
vn 0.000000 -0.866027 -0.499998
vn -0.866026 0.000000 -0.499999
vn -0.866026 0.000000 -0.499999
vn 0.000000 -0.154148 0.988048
vn 0.000000 -0.154148 0.988048
vn -0.864751 -0.054261 0.499262
vn -0.863694 -0.073346 0.498652
vn 0.000000 0.000000 -1.000000
vn 0.000000 0.000000 -1.000000
vn -0.865817 0.021948 -0.499879
vn -0.907139 0.149885 -0.393235
vn 0.866026 -0.000002 0.499999
vn 0.866021 -0.000002 0.500007
vn 0.862716 -0.087349 0.498088
vn 0.866028 0.000001 0.499995
vn 0.866026 0.000001 0.499999
vn 0.860575 -0.112022 0.496851
vn 0.866028 -0.000003 -0.499997
vn 0.866035 -0.000003 -0.499984
vn 0.916246 0.234530 -0.324791
vn 0.866025 0.000001 -0.500001
vn 0.866028 0.000001 -0.499997
vn 0.865251 0.042335 -0.499548
vn 0.000000 -0.382684 0.923879
vn 0.000000 -0.382684 0.923879
vn 0.000000 -0.923879 0.382684
vn 0.000000 -0.923879 0.382684
vn 0.000000 -0.965540 0.260256
vn 0.000000 -0.965540 0.260256
vn -0.866026 -0.353554 0.353553
vn -0.866026 -0.353554 0.353553
vn -0.858762 -0.495805 0.129247
vn -0.860988 -0.497090 0.107707
vn -0.866026 0.353552 -0.353553
vn -0.864697 0.499234 -0.055365
vn 0.866028 0.353550 -0.353550
vn 0.864699 0.499230 -0.055364
vn 0.866026 -0.353553 0.353552
vn 0.866026 -0.353553 0.353552
vn 0.860988 -0.497090 0.107707
vn 0.858762 -0.495805 0.129247
vn 0.000000 -1.000000 0.000000
vn 0.000000 -1.000000 0.000000
vn -0.866026 -0.499999 0.000000
vn -0.866026 -0.499999 0.000000
vn -0.866025 0.500001 0.000000
vn -0.866025 0.500001 0.000000
vn 0.000000 1.000000 0.000000
vn 0.000000 1.000000 0.000000
vn 0.000000 1.000000 0.000000
vn 0.000000 1.000000 0.000000
vn 0.866027 0.499997 0.000000
vn 0.866027 0.499997 0.000000
vn 0.866026 -0.499999 0.000000
vn 0.866026 -0.499999 0.000000
s 1
g polySurface46
usemtl initialShadingGroup
f 1/1/1 2/2/2 3/3/3
f 1/1/1 4/4/4 2/2/2
s 2
f 2/2/5 4/4/6 13/13/7
f 13/13/7 4/4/6 5/5/8
s 3
f 6/6/9 7/7/10 9/9/11
f 9/9/11 7/7/10 8/8/12
s 2
f 3/3/13 10/10/14 12/12/15
f 12/12/15 10/10/14 11/11/16
f 3/3/13 2/2/5 10/10/14
f 10/10/14 2/2/5 13/13/7
s 5
f 15/15/17 16/16/18 14/14/19
f 14/14/19 16/16/18 17/17/20
s 6
f 18/18/21 19/19/22 5/21/23
f 5/21/23 19/19/22 20/20/24
s 3
f 21/22/25 8/23/12 22/24/26
f 9/25/11 8/23/12 21/22/25
s 7
f 23/26/27 24/27/28 26/29/29
f 26/29/29 24/27/28 25/28/30
s 3
f 22/24/26 8/23/12 28/31/31
f 28/31/31 8/23/12 27/30/32
s 8
f 19/19/33 6/6/34 20/20/35
f 20/20/35 6/6/34 9/9/36
f 21/22/37 22/24/38 30/33/39
f 30/33/39 22/24/38 29/32/40
s 10
f 26/29/41 25/28/42 14/14/43
f 14/14/43 25/28/42 15/15/44
s 8
f 9/25/36 21/22/37 20/34/35
f 20/34/35 21/22/37 30/33/39
s 11
f 10/10/45 29/32/46 11/11/47
f 11/11/47 29/32/46 31/35/48
s 8
f 29/32/40 22/24/38 31/35/49
f 31/35/49 22/24/38 28/31/50
s 11
f 13/13/51 30/33/52 10/10/45
f 10/10/45 30/33/52 29/32/46
s 6
f 5/5/23 20/34/24 13/13/53
f 13/13/53 20/34/24 30/33/54
s 12
f 33/37/55 24/27/56 32/36/57
f 32/36/57 24/27/56 23/26/58
s 13
f 8/23/59 1/1/60 27/30/61
f 27/30/61 1/1/60 34/38/62
s 2
f 35/39/63 18/18/64 4/40/6
f 4/40/6 18/18/64 5/21/8
s 1
f 1/1/1 3/3/3 34/38/65
f 34/38/65 3/3/3 12/12/66
s 15
f 17/17/67 16/16/68 37/42/69
f 37/42/69 16/16/68 36/41/70
s 16
f 7/43/71 38/44/72 8/46/73
f 8/46/73 38/44/72 1/45/74
s 17
f 37/42/75 36/41/76 32/36/77
f 32/36/77 36/41/76 33/37/78
s 1
f 38/44/79 35/39/80 1/45/1
f 1/45/1 35/39/80 4/40/4
s 6
f 19/47/22 18/48/21 40/50/81
f 40/50/81 18/48/21 39/49/82
s 2
f 18/48/64 35/51/63 39/49/83
f 39/49/83 35/51/63 41/52/84
s 16
f 38/53/72 7/54/71 43/56/85
f 43/56/85 7/54/71 42/55/86
s 1
f 35/51/80 38/53/79 41/52/87
f 41/52/87 38/53/79 43/56/88
s 8
f 6/57/34 19/47/33 14/61/89
f 14/61/89 19/47/33 26/60/90
f 19/47/33 40/50/91 26/60/90
f 26/60/90 40/50/91 23/59/92
f 23/59/92 40/50/91 32/36/93
f 40/50/91 44/58/94 32/36/93
s 3
f 6/57/9 14/61/95 7/54/10
f 14/61/95 17/62/96 7/54/10
f 7/54/10 17/62/96 42/55/97
f 17/62/96 37/63/98 42/55/97
f 37/63/98 32/36/99 42/55/97
f 32/36/99 44/58/100 42/55/97
s 6
f 40/50/81 39/49/82 45/66/101 47/64/102
s 19
f 47/64/103 45/66/104 46/67/105 48/65/106
s 2
f 39/49/83 41/52/84 49/68/107 45/66/108
f 45/66/108 49/68/107 50/69/109 46/67/110
s 1
f 41/52/87 43/56/88 49/68/111
f 49/68/111 43/56/88 50/69/112
s 3
f 42/55/97 44/58/100 51/70/113
f 42/55/97 51/70/113 52/71/114
s 8
f 44/58/94 40/50/91 47/64/115 51/70/116
f 51/70/116 47/64/115 48/65/117 52/71/118
s 19
f 48/65/106 46/67/105 53/73/119 54/72/120
s 2
f 46/67/110 50/69/109 55/74/121 53/73/122
s 1
f 50/69/112 43/56/88 56/75/123 55/74/124
s off
f 43/56/125 42/55/126 57/76/127 56/75/128
s 3
f 42/55/97 52/71/114 58/77/129 57/76/130
s 8
f 52/71/118 48/65/117 54/72/131 58/77/132
s 20
f 59/78/133 60/79/134 61/80/135
f 59/78/133 62/81/136 60/79/134
s 21
f 60/79/137 62/81/138 71/82/139
f 71/82/139 62/81/138 63/83/140
s 22
f 64/84/141 65/85/142 67/86/143
f 67/86/143 65/85/142 66/87/144
s 21
f 61/80/145 68/88/146 70/89/147
f 70/89/147 68/88/146 69/90/148
f 61/80/145 60/79/137 68/88/146
f 68/88/146 60/79/137 71/82/139
s 24
f 73/91/149 74/92/150 72/93/151
f 72/93/151 74/92/150 75/94/152
s 25
f 76/95/153 77/96/154 63/97/155
f 63/97/155 77/96/154 78/98/156
s 22
f 79/99/157 66/100/144 80/101/158
f 67/102/143 66/100/144 79/99/157
s 26
f 81/103/159 82/104/160 84/105/161
f 84/105/161 82/104/160 83/106/162
s 22
f 80/101/158 66/100/144 86/107/163
f 86/107/163 66/100/144 85/108/164
s 27
f 77/96/165 64/84/166 78/98/167
f 78/98/167 64/84/166 67/86/168
f 79/99/169 80/101/170 88/109/171
f 88/109/171 80/101/170 87/110/172
s 29
f 84/105/173 83/106/174 72/93/175
f 72/93/175 83/106/174 73/91/176
s 27
f 67/102/168 79/99/169 78/111/167
f 78/111/167 79/99/169 88/109/171
s 30
f 68/88/177 87/110/178 69/90/179
f 69/90/179 87/110/178 89/112/180
s 27
f 87/110/172 80/101/170 89/112/181
f 89/112/181 80/101/170 86/107/182
s 30
f 71/82/183 88/109/184 68/88/177
f 68/88/177 88/109/184 87/110/178
s 25
f 63/83/155 78/111/156 71/82/185
f 71/82/185 78/111/156 88/109/186
s 31
f 91/113/187 82/104/188 90/114/189
f 90/114/189 82/104/188 81/103/190
s 32
f 66/100/191 59/78/192 85/108/193
f 85/108/193 59/78/192 92/115/194
s 21
f 93/116/195 76/95/196 62/117/138
f 62/117/138 76/95/196 63/97/140
s 20
f 59/78/133 61/80/135 92/115/197
f 92/115/197 61/80/135 70/89/198
s 34
f 75/94/199 74/92/200 95/118/201
f 95/118/201 74/92/200 94/119/202
s 35
f 65/120/203 96/121/204 66/122/205
f 66/122/205 96/121/204 59/123/206
s 36
f 95/118/207 94/119/208 90/114/209
f 90/114/209 94/119/208 91/113/210
s 20
f 96/121/211 93/116/212 59/123/133
f 59/123/133 93/116/212 62/117/136
s 25
f 77/124/154 76/125/153 98/126/213
f 98/126/213 76/125/153 97/127/214
s 21
f 76/125/196 93/128/195 97/127/215
f 97/127/215 93/128/195 99/129/216
s 35
f 96/130/204 65/131/203 101/132/217
f 101/132/217 65/131/203 100/133/218
s 20
f 93/128/212 96/130/211 99/129/219
f 99/129/219 96/130/211 101/132/220
s 27
f 64/134/166 77/124/165 72/135/221
f 72/135/221 77/124/165 84/136/222
f 77/124/165 98/126/223 84/136/222
f 84/136/222 98/126/223 81/137/224
f 81/137/224 98/126/223 90/114/225
f 98/126/223 102/138/226 90/114/225
s 22
f 64/134/141 72/135/227 65/131/142
f 72/135/227 75/139/228 65/131/142
f 65/131/142 75/139/228 100/133/229
f 75/139/228 95/140/230 100/133/229
f 95/140/230 90/114/231 100/133/229
f 90/114/231 102/138/232 100/133/229
s 25
f 98/126/213 97/127/214 103/141/233 105/142/234
s 38
f 105/142/235 103/141/236 104/143/237 106/144/238
s 21
f 97/127/215 99/129/216 107/145/239 103/141/240
f 103/141/240 107/145/239 108/146/241 104/143/242
s 20
f 99/129/219 101/132/220 107/145/243
f 107/145/243 101/132/220 108/146/244
s 22
f 100/133/229 102/138/232 109/147/245
f 100/133/229 109/147/245 110/148/246
s 27
f 102/138/226 98/126/223 105/142/247 109/147/248
f 109/147/248 105/142/247 106/144/249 110/148/250
s 38
f 106/144/238 104/143/237 111/149/251 112/150/252
s 21
f 104/143/242 108/146/241 113/151/253 111/149/254
s 20
f 108/146/244 101/132/220 114/152/255 113/151/256
s off
f 101/132/257 100/133/258 115/153/259 114/152/260
s 22
f 100/133/229 110/148/246 116/154/261 115/153/262
s 27
f 110/148/250 106/144/249 112/150/263 116/154/264
