# This file uses centimeters as units for non-parametric coordinates.

mtllib wallsegment2.mtl
g default
v -64.854179 59.669765 42.605450
v -68.290077 59.669765 46.041351
v -64.854179 59.669765 49.477253
v -61.418278 59.669765 46.041351
v -64.854179 132.252823 42.605450
v -68.290077 132.252823 46.041351
v -64.854179 132.252823 49.477253
v -61.418278 132.252823 46.041351
v -64.854179 59.669765 17.759161
v -68.290077 59.669765 21.195063
v -64.854179 59.669765 24.630964
v -61.418278 59.669765 21.195063
v -64.854179 132.252823 17.759161
v -68.290077 132.252823 21.195063
v -64.854179 132.252823 24.630964
v -61.418278 132.252823 21.195063
v -64.854179 59.669765 -7.651567
v -68.290077 59.669765 -4.215666
v -64.854179 59.669765 -0.779764
v -61.418278 59.669765 -4.215665
v -64.854179 132.252823 -7.651567
v -68.290077 132.252823 -4.215666
v -64.854179 132.252823 -0.779764
v -61.418278 132.252823 -4.215665
v -75.000000 150.000000 75.000000
v -75.000000 150.000000 -75.000000
v 75.000000 0.000000 75.000000
v 75.000000 0.000000 -75.000000
v -60.000000 0.000000 -75.000000
v -60.000000 0.000000 75.000000
v -60.000000 150.000000 -75.000000
v -60.000000 150.000000 75.000000
v -60.000000 131.681580 -12.873779
v -60.000000 131.681580 57.126221
v -60.000000 61.681572 57.126221
v -60.000000 61.681572 -12.873779
v -70.238586 131.681580 -12.873779
v -70.238586 131.681580 57.126221
v -70.238586 61.681572 57.126221
v -70.238586 61.681572 -12.873779
vt 0.375000 0.312500
vt 0.437500 0.312500
vt 0.500000 0.312500
vt 0.562500 0.312500
vt 0.625000 0.312500
vt 0.375000 0.688440
vt 0.437500 0.688440
vt 0.500000 0.688440
vt 0.562500 0.688440
vt 0.625000 0.688440
vt 0.375000 0.312500
vt 0.437500 0.312500
vt 0.437500 0.688440
vt 0.375000 0.688440
vt 0.500000 0.312500
vt 0.500000 0.688440
vt 0.562500 0.312500
vt 0.562500 0.688440
vt 0.625000 0.312500
vt 0.625000 0.688440
vt 0.375000 0.312500
vt 0.437500 0.312500
vt 0.437500 0.688440
vt 0.375000 0.688440
vt 0.500000 0.312500
vt 0.500000 0.688440
vt 0.562500 0.312500
vt 0.562500 0.688440
vt 0.625000 0.312500
vt 0.625000 0.688440
vt 0.600000 1.000000
vt 0.600000 0.750000
vt 0.375000 0.750000
vt 0.375000 1.000000
vt 0.125000 0.225000
vt 0.375000 0.225000
vt 0.375000 0.000000
vt 0.125000 0.000000
vt 0.400000 0.500000
vt 0.375000 0.500000
vt 0.375000 0.250000
vt 0.400000 0.250000
vt 0.125000 0.225000
vt 0.375000 0.225000
vt 0.375000 0.225000
vt 0.125000 0.225000
vt 0.375000 0.000000
vt 0.375000 0.000000
vt 0.125000 0.000000
vt 0.125000 0.000000
vn 0.000000 0.000000 -1.000000
vn -1.000000 0.000000 0.000000
vn -1.000000 0.000000 0.000000
vn 0.000000 0.000000 -1.000000
vn -0.000000 0.000000 1.000000
vn -0.000000 0.000000 1.000000
vn 1.000000 0.000000 -0.000000
vn 1.000000 0.000000 -0.000000
vn 0.000000 0.000000 -1.000000
vn -1.000000 0.000000 0.000000
vn -1.000000 0.000000 0.000000
vn 0.000000 0.000000 -1.000000
vn 0.000000 0.000000 1.000000
vn 0.000000 0.000000 1.000000
vn 1.000000 0.000000 -0.000000
vn 1.000000 0.000000 -0.000000
vn 0.000000 0.000000 -1.000000
vn -1.000000 0.000000 0.000000
vn -1.000000 0.000000 0.000000
vn 0.000000 0.000000 -1.000000
vn -0.000000 0.000000 1.000000
vn -0.000000 0.000000 1.000000
vn 1.000000 0.000000 0.000000
vn 1.000000 0.000000 0.000000
vn 0.000000 1.000000 0.000000
vn 0.000000 1.000000 0.000000
vn 0.000000 1.000000 0.000000
vn 0.000000 1.000000 0.000000
vn 1.000000 0.000000 0.000000
vn 1.000000 0.000000 0.000000
vn 1.000000 0.000000 0.000000
vn 1.000000 0.000000 0.000000
vn 0.000000 1.000000 0.000000
vn 0.000000 1.000000 0.000000
vn 0.000000 1.000000 0.000000
vn 0.000000 1.000000 0.000000
vn 1.000000 0.000000 0.000000
vn 1.000000 0.000000 0.000000
vn 1.000000 0.000000 0.000000
vn 1.000000 0.000000 0.000000
vn 1.000000 0.000000 0.000000
vn 1.000000 0.000000 0.000000
vn 1.000000 0.000000 0.000000
vn 1.000000 0.000000 0.000000
vn 0.000000 -1.000000 0.000000
vn 0.000000 -1.000000 0.000000
vn 0.000000 -1.000000 0.000000
vn 0.000000 -1.000000 0.000000
vn 0.000000 0.000000 -1.000000
vn 0.000000 0.000000 -1.000000
vn 0.000000 0.000000 -1.000000
vn 0.000000 0.000000 -1.000000
vn 0.000000 1.000000 0.000000
vn 0.000000 1.000000 0.000000
vn 0.000000 1.000000 0.000000
vn 0.000000 1.000000 0.000000
vn 0.000000 0.000000 1.000000
vn 0.000000 0.000000 1.000000
vn 0.000000 0.000000 1.000000
vn 0.000000 0.000000 1.000000
s 1
g WallSegment2
usemtl initialShadingGroup
f 1/1/1 2/2/2 6/7/3 5/6/4
f 2/2/2 3/3/5 7/8/6 6/7/3
f 3/3/5 4/4/7 8/9/8 7/8/6
f 4/4/7 1/5/1 5/10/4 8/9/8
s 2
f 9/11/9 10/12/10 14/13/11 13/14/12
f 10/12/10 11/15/13 15/16/14 14/13/11
f 11/15/13 12/17/15 16/18/16 15/16/14
f 12/17/15 9/19/9 13/20/12 16/18/16
s 3
f 17/21/17 18/22/18 22/23/19 21/24/20
f 18/22/18 19/25/21 23/26/22 22/23/19
f 19/25/21 20/27/23 24/28/24 23/26/22
f 20/27/23 17/29/17 21/30/20 24/28/24
s off
f 27/31/25 28/32/26 29/33/27 30/34/28
f 37/35/29 38/36/30 39/37/31 40/38/32
f 31/39/33 26/40/34 25/41/35 32/42/36
s 4
f 31/43/37 32/44/38 34/45/39 33/46/40
f 32/44/38 30/47/41 35/48/42 34/45/39
f 30/47/41 29/49/43 36/50/44 35/48/42
f 29/49/43 31/43/37 33/46/40 36/50/44
s off
f 33/46/45 34/45/46 38/36/47 37/35/48
f 34/45/49 35/48/50 39/37/51 38/36/52
f 35/48/53 36/50/54 40/38/55 39/37/56
f 36/50/57 33/46/58 37/35/59 40/38/60
