# This file uses centimeters as units for non-parametric coordinates.

mtllib wallsegment3.mtl
g default
v -75.000000 150.000000 -75.000000
v 75.000000 150.000000 -75.000000
v -75.000000 0.000000 75.000000
v 75.000000 0.000000 75.000000
v 75.000000 0.000000 -60.000000
v -75.000000 0.000000 -60.000000
v 75.000000 150.000000 -60.000000
v -75.000000 150.000000 -60.000000
vt 0.375000 0.250000
vt 0.600000 1.000000
vt 0.600000 0.750000
vt 0.375000 0.750000
vt 0.375000 1.000000
vt 0.125000 0.225000
vt 0.375000 0.225000
vt 0.375000 0.000000
vt 0.125000 0.000000
vt 0.400000 0.500000
vt 0.375000 0.500000
vt 0.400000 0.250000
vn 0.000000 1.000000 0.000000
vn 0.000000 1.000000 0.000000
vn 0.000000 1.000000 0.000000
vn 0.000000 1.000000 0.000000
vn 0.000000 0.000000 1.000000
vn 0.000000 0.000000 1.000000
vn 0.000000 0.000000 1.000000
vn 0.000000 0.000000 1.000000
vn 0.000000 1.000000 0.000000
vn 0.000000 1.000000 0.000000
vn 0.000000 1.000000 0.000000
vn 0.000000 1.000000 0.000000
s off
g WallSegment3
usemtl initialShadingGroup
f 3/2/1 4/3/2 5/4/3 6/5/4
f 7/6/5 8/7/6 6/8/7 5/9/8
f 7/10/9 2/11/10 1/1/11 8/12/12
