# This file uses centimeters as units for non-parametric coordinates.

mtllib wallsegment4.mtl
g default
v 75.000000 150.000000 -75.000000
v 75.000000 150.000000 75.000000
v -75.000000 0.000000 -75.000000
v -75.000000 0.000000 75.000000
v 60.000000 0.000000 75.000000
v 60.000000 0.000000 -75.000000
v 60.000000 150.000000 75.000000
v 60.000000 150.000000 -75.000000
v 60.000000 75.000000 0.000000
v 60.000000 150.000000 0.000000
v 60.000000 75.000000 -75.000000
v 60.000000 0.000000 0.000000
v 60.000000 75.000000 75.000000
v 60.000000 150.000000 37.500000
v 60.000000 75.000000 37.500000
v 60.000000 150.000000 -37.500000
v 60.000000 75.000000 -37.500000
v 60.000000 0.000000 -37.500000
v 60.000000 0.000000 37.500000
v 60.000000 75.000000 56.250000
v 60.000000 150.000000 -18.750000
v 60.000000 131.250000 -37.500000
v 60.000000 75.000000 -56.250000
v 60.000000 0.000000 18.750000
v 60.000000 131.250000 56.250000
v 60.000000 131.250000 75.000000
v 60.000000 150.000000 56.250000
v 60.000000 131.250000 37.500000
v 60.000000 150.000000 18.750000
v 60.000000 75.000000 18.750000
v 60.000000 131.250000 -56.250000
v 60.000000 150.000000 -56.250000
v 60.000000 131.250000 -75.000000
v 60.000000 75.000000 -18.750000
v 60.000000 0.000000 -56.250000
v 60.000000 0.000000 -18.750000
v 60.000000 0.000000 56.250000
v 34.423759 75.000000 37.500000
v 34.423759 75.000000 56.250000
v 34.423759 -0.000000 37.500000
v 34.423759 -0.000000 56.250000
v 44.560913 131.250000 37.500000
v 44.560913 131.250000 56.250000
v 34.423759 75.000000 -37.500000
v 34.423759 75.000000 -56.250000
v 44.560913 131.250000 -37.500000
v 44.560913 131.250000 -56.250000
v 34.423759 -0.000000 -37.500000
v 34.423759 -0.000000 -56.250000
vt 0.375000 0.250000
vt 0.600000 1.000000
vt 0.600000 0.750000
vt 0.375000 0.750000
vt 0.375000 1.000000
vt 0.125000 0.225000
vt 0.375000 0.225000
vt 0.375000 0.000000
vt 0.125000 0.000000
vt 0.400000 0.500000
vt 0.375000 0.500000
vt 0.400000 0.250000
vt 0.250000 0.112500
vt 0.250000 0.225000
vt 0.400000 0.375000
vt 0.375000 0.112500
vt 0.375000 0.875000
vt 0.250000 0.000000
vt 0.125000 0.112500
vt 0.187500 0.168750
vt 0.187500 0.225000
vt 0.400000 0.437500
vt 0.187500 0.112500
vt 0.312500 0.225000
vt 0.400000 0.312500
vt 0.312500 0.112500
vt 0.312500 0.056250
vt 0.375000 0.937500
vt 0.312500 0.000000
vt 0.375000 0.812500
vt 0.187500 0.000000
vt 0.156250 0.112500
vt 0.156250 0.168750
vt 0.281250 0.225000
vt 0.400000 0.343750
vt 0.312500 0.196875
vt 0.343750 0.084375
vt 0.343750 0.112500
vt 0.312500 0.084375
vt 0.375000 0.843750
vt 0.218750 0.000000
vt 0.187500 0.028125
vt 0.156250 0.196875
vt 0.125000 0.196875
vt 0.156250 0.225000
vt 0.400000 0.468750
vt 0.187500 0.196875
vt 0.218750 0.225000
vt 0.400000 0.406250
vt 0.218750 0.112500
vt 0.343750 0.196875
vt 0.343750 0.225000
vt 0.400000 0.281250
vt 0.375000 0.196875
vt 0.343750 0.168750
vt 0.343750 0.140625
vt 0.281250 0.112500
vt 0.343750 0.028125
vt 0.375000 0.968750
vt 0.343750 0.000000
vt 0.375000 0.906250
vt 0.281250 0.000000
vt 0.156250 0.028125
vt 0.375000 0.781250
vt 0.156250 0.000000
vt 0.156250 0.056250
vt 0.187500 0.112500
vt 0.156250 0.112500
vt 0.312500 0.084375
vt 0.312500 0.112500
vt 0.343750 0.112500
vt 0.343750 0.084375
vt 0.187500 0.028125
vt 0.187500 0.000000
vt 0.156250 0.000000
vt 0.156250 0.028125
vt 0.187500 0.168750
vt 0.156250 0.168750
vt 0.312500 0.056250
vt 0.187500 0.196875
vt 0.156250 0.196875
vt 0.312500 0.196875
vt 0.343750 0.196875
vt 0.343750 0.168750
vt 0.343750 0.140625
vt 0.343750 0.000000
vt 0.312500 0.000000
vt 0.343750 0.028125
vt 0.156250 0.056250
vn 0.000000 1.000000 0.000000
vn 0.000000 1.000000 0.000000
vn 0.000000 1.000000 0.000000
vn 0.000000 1.000000 0.000000
vn 0.000000 1.000000 0.000000
vn 0.000000 1.000000 0.000000
vn 0.000000 1.000000 0.000000
vn 0.000000 1.000000 0.000000
vn 0.000000 1.000000 0.000000
vn 0.000000 1.000000 0.000000
vn 0.000000 1.000000 0.000000
vn 0.000000 1.000000 0.000000
vn 0.000000 1.000000 0.000000
vn 0.000000 1.000000 0.000000
vn 0.000000 1.000000 0.000000
vn 0.000000 1.000000 0.000000
vn 0.000000 1.000000 0.000000
vn 0.000000 1.000000 0.000000
vn 0.000000 1.000000 0.000000
vn 0.000000 1.000000 0.000000
vn 0.000000 1.000000 0.000000
vn 0.000000 1.000000 0.000000
vn -1.000000 0.000000 0.000000
vn -1.000000 0.000000 0.000000
vn -1.000000 0.000000 0.000000
vn -1.000000 0.000000 0.000000
vn -1.000000 0.000000 0.000000
vn -1.000000 0.000000 0.000000
vn -1.000000 0.000000 0.000000
vn -1.000000 0.000000 0.000000
vn -0.984146 0.177359 0.000000
vn -0.984146 0.177359 0.000000
vn -0.984146 0.177359 0.000000
vn -0.984146 0.177359 0.000000
vn -1.000000 0.000000 0.000000
vn -1.000000 0.000000 0.000000
vn -1.000000 0.000000 0.000000
vn -1.000000 0.000000 0.000000
vn -1.000000 0.000000 0.000000
vn -1.000000 0.000000 0.000000
vn -1.000000 0.000000 0.000000
vn -1.000000 0.000000 0.000000
vn -1.000000 0.000000 0.000000
vn -1.000000 0.000000 0.000000
vn -1.000000 0.000000 0.000000
vn -1.000000 0.000000 0.000000
vn -1.000000 0.000000 0.000000
vn -1.000000 0.000000 0.000000
vn -1.000000 0.000000 0.000000
vn -1.000000 0.000000 0.000000
vn -1.000000 0.000000 0.000000
vn -1.000000 0.000000 0.000000
vn -1.000000 0.000000 0.000000
vn -1.000000 0.000000 0.000000
vn -1.000000 0.000000 0.000000
vn -1.000000 0.000000 0.000000
vn -1.000000 0.000000 0.000000
vn -1.000000 0.000000 0.000000
vn -1.000000 0.000000 0.000000
vn -1.000000 0.000000 0.000000
vn -1.000000 0.000000 0.000000
vn -1.000000 0.000000 0.000000
vn -1.000000 0.000000 0.000000
vn -1.000000 0.000000 0.000000
vn -1.000000 0.000000 0.000000
vn -1.000000 0.000000 0.000000
vn -1.000000 0.000000 0.000000
vn -1.000000 0.000000 0.000000
vn -1.000000 0.000000 0.000000
vn -1.000000 0.000000 0.000000
vn -1.000000 0.000000 0.000000
vn -1.000000 0.000000 0.000000
vn -0.984146 0.177359 0.000000
vn -0.984146 0.177359 0.000000
vn -0.984146 0.177359 0.000000
vn -0.984146 0.177359 0.000000
vn -1.000000 0.000000 0.000000
vn -1.000000 0.000000 0.000000
vn -1.000000 0.000000 0.000000
vn -1.000000 0.000000 0.000000
vn -1.000000 0.000000 0.000000
vn -1.000000 0.000000 0.000000
vn -1.000000 0.000000 0.000000
vn -1.000000 0.000000 0.000000
vn -1.000000 0.000000 0.000000
vn -1.000000 0.000000 0.000000
vn -1.000000 0.000000 0.000000
vn -1.000000 0.000000 0.000000
vn -1.000000 0.000000 0.000000
vn -1.000000 0.000000 0.000000
vn -1.000000 0.000000 0.000000
vn -1.000000 0.000000 0.000000
vn -1.000000 0.000000 0.000000
vn -1.000000 0.000000 0.000000
vn -1.000000 0.000000 0.000000
vn -1.000000 0.000000 0.000000
vn -1.000000 0.000000 0.000000
vn -1.000000 0.000000 0.000000
vn -1.000000 0.000000 0.000000
vn -1.000000 0.000000 0.000000
vn -1.000000 0.000000 0.000000
vn -1.000000 0.000000 0.000000
vn -1.000000 0.000000 0.000000
vn -1.000000 0.000000 0.000000
vn 0.000000 0.000000 1.000000
vn 0.000000 0.000000 1.000000
vn 0.000000 0.000000 1.000000
vn 0.000000 0.000000 1.000000
vn 0.000000 -1.000000 0.000000
vn 0.000000 -1.000000 0.000000
vn 0.000000 -1.000000 0.000000
vn 0.000000 -1.000000 0.000000
vn 0.000000 0.000000 1.000000
vn 0.000000 0.000000 1.000000
vn 0.000000 0.000000 -1.000000
vn 0.000000 0.000000 -1.000000
vn 0.000000 0.000000 -1.000000
vn 0.000000 0.000000 -1.000000
vn 0.000000 1.000000 0.000000
vn 0.000000 1.000000 0.000000
vn 0.000000 1.000000 0.000000
vn 0.000000 1.000000 0.000000
vn 0.000000 0.000000 -1.000000
vn 0.000000 0.000000 -1.000000
vn 0.000000 0.000000 -1.000000
vn 0.000000 0.000000 -1.000000
vn 0.000000 0.000000 -1.000000
vn 0.000000 0.000000 -1.000000
vn 0.000000 1.000000 0.000000
vn 0.000000 1.000000 0.000000
vn 0.000000 1.000000 0.000000
vn 0.000000 1.000000 0.000000
vn 0.000000 0.000000 -1.000000
vn 0.000000 0.000000 -1.000000
vn 0.000000 0.000000 1.000000
vn 0.000000 0.000000 1.000000
vn 0.000000 0.000000 1.000000
vn 0.000000 0.000000 1.000000
vn 0.000000 -1.000000 0.000000
vn 0.000000 -1.000000 0.000000
vn 0.000000 -1.000000 0.000000
vn 0.000000 -1.000000 0.000000
vn 0.000000 0.000000 1.000000
vn 0.000000 0.000000 1.000000
s off
g WallSegment5
usemtl initialShadingGroup
f 3/2/1 4/3/2 5/4/3 37/64/4 19/30/5 24/40/6 12/17/7 36/61/8 18/28/9 35/59/10 6/5/11
f 7/10/12 2/11/13 1/1/14 8/12/15 32/53/16 16/25/17 21/35/18 10/15/19 29/49/20 14/22/21 27/46/22
f 22/36/23 16/24/24 32/52/25 31/51/26
f 20/32/27 13/19/28 26/44/29 25/43/30
f 39/68/31 43/81/32 42/80/33 38/67/34
f 34/57/35 21/34/36 16/24/37 22/36/38 17/26/39
f 23/38/40 11/16/41 6/8/42 35/60/43
f 44/70/44 45/71/45 49/86/46 48/87/47
f 26/44/48 7/6/49 27/45/50 25/43/51
f 27/45/52 14/21/53 28/47/54 25/43/55
f 30/50/56 29/48/57 10/14/58 9/13/59
f 30/50/60 15/23/61 28/47/62 14/21/63 29/48/64
f 32/52/65 8/7/66 33/54/67 31/51/68
f 31/51/69 33/54/70 11/16/71 23/38/72
f 45/71/73 44/70/74 46/82/75 47/83/76
f 34/57/77 9/13/78 10/14/79 21/34/80
f 36/62/81 12/18/82 9/13/83 34/57/84
f 18/29/85 36/62/86 34/57/87 17/26/88
f 37/65/89 5/9/90 13/19/91 20/32/92
f 40/74/93 41/75/94 39/68/95 38/67/96
f 24/41/97 30/50/98 9/13/99 12/18/100
f 15/23/101 30/50/102 24/41/103 19/31/104
s 1
f 39/68/105 20/32/106 25/33/107 43/78/108
s off
f 19/38/109 37/37/110 41/72/111 40/71/112
s 1
f 41/73/113 37/42/114 20/47/106 39/80/105
s 2
f 38/67/115 42/77/116 28/20/117 15/23/118
s off
f 25/27/119 28/39/120 42/69/121 43/79/122
s 2
f 40/70/123 38/78/115 15/33/118 19/26/124
s 3
f 45/70/125 23/26/126 35/32/127 49/68/128
s off
f 22/60/129 31/29/130 47/87/131 46/86/132
s 3
f 45/79/125 47/87/133 31/29/134 23/27/126
s 4
f 44/88/135 17/58/136 22/56/137 46/85/138
s off
f 35/63/139 18/66/140 48/89/141 49/76/142
s 4
f 44/84/135 48/67/143 18/23/144 17/55/136
